<?xml version="1.0" encoding="UTF-8"?>
<svg xmlns="http://www.w3.org/2000/svg" xmlns:xlink="http://www.w3.org/1999/xlink" width="25px" height="25px" viewBox="0 0 25 25" version="1.1">
<defs>
<clipPath id="clip1">
  <path d="M 0 0 L 25 0 L 25 24.546875 L 0 24.546875 Z M 0 0 "/>
</clipPath>
</defs>
<g id="surface1">
<g clip-path="url(#clip1)" clip-rule="nonzero">
<path style=" stroke:none;fill-rule:evenodd;fill:rgb(21.960784%,74.117649%,97.254902%);fill-opacity:1;" d="M 12.5 0 C 9.167969 0 7.082031 2.726562 6.25 8.183594 C 7.5 5.453125 8.957031 4.433594 10.625 5.113281 C 11.574219 5.503906 12.253906 6.632812 13.007812 7.882812 C 14.234375 9.917969 15.652344 12.273438 18.75 12.273438 C 22.082031 12.273438 24.167969 9.546875 25 4.089844 C 23.75 6.816406 22.292969 7.839844 20.625 7.160156 C 19.675781 6.769531 18.996094 5.640625 18.242188 4.390625 C 17.015625 2.355469 15.597656 0 12.5 0 Z M 6.25 12.273438 C 2.917969 12.273438 0.832031 15 0 20.453125 C 1.25 17.726562 2.707031 16.703125 4.375 17.386719 C 5.324219 17.777344 6.003906 18.90625 6.757812 20.152344 C 7.984375 22.1875 9.402344 24.546875 12.5 24.546875 C 15.832031 24.546875 17.917969 21.816406 18.75 16.363281 C 17.5 19.089844 16.042969 20.113281 14.375 19.433594 C 13.425781 19.042969 12.746094 17.914062 11.992188 16.664062 C 10.765625 14.628906 9.347656 12.273438 6.25 12.273438 Z M 6.25 12.273438 "/>
</g>
</g>
</svg>
